<svg xmlns="http://www.w3.org/2000/svg" xmlns:xlink="http://www.w3.org/1999/xlink" width="139" height="29" viewBox="0 0 139 29"><defs><style>.a{fill:none;}.b{clip-path:url(#a);}.c{fill:#e1007f;}</style><clipPath id="a"><rect class="a" width="139" height="29"/></clipPath></defs><g class="b"><path class="c" d="M20.932,24.47A48.027,48.027,0,0,1,6.941,18.647C-.864,14-2.193,8.05,3.5,3.322,8.615-.935,19.6-1.829,25,5.011s4.982,8.866,4.982,8.866S35.879,2.9,44.514,3.66s2.325,10.892-4.069,15.7S34.24,23.45,33.3,22.32c-.514-.621,1.722-2.819,3.571-4.982,2.93-3.428,6.228-7.3,6.228-8.7,0-.9-6.975,2.786-11.957,9.71,0,0-1.2,1.6-1.951,1.478s-.872-.211-1.578-2.575S21.887,2.33,10.366,5.686s-.09,9.622,3.114,11.4c3.425,1.9,9.964,4.813,10.4,6.206s-1.986,1.378-2.948,1.18"/><path class="c" d="M53.034,11C46.146,12.44,47,20.693,49.159,22.128s5.729,1.942,9.217-1.52l-.83-1.1a7.205,7.205,0,0,1-2.491,1.013c-2.117.633-2.408-1.773-2.408-1.773s4.733-.76,5.9-2.618.37-6.354-5.508-5.129m1.73,3.356c-.985,2.65-2.159,2.65-2.159,2.65s-.018-2.481.7-3.495,2.141-.982,1.462.844"/><path class="c" d="M68.132,11.574a10.138,10.138,0,0,0-3.861-.521c-1.495.267-5.729,2.674-4.359,9.429,0,0,1.038,3.209,4.152,2.111l2.325-.844s-.249,1.138-.291,1.477c0,0-5.19,1.268-5.19,3.252s1.229,3.166,4.974,2.153c1.943-.526,4.1-3.164,5.073-7.346a40.059,40.059,0,0,0,1-10.175,8.015,8.015,0,0,0-3.82.464M62.776,26.646C62.32,25.168,65.8,24.83,65.8,24.83c-.667,1.6-2.571,3.293-3.028,1.815m3.737-6.578s-1.37.929-1.785-.464,0-7.684,2.45-6.164Z"/><path class="c" d="M84.967,20.482c-.374-.253.54-7.409,1.121-8.275,0,0-.145-.857-4.038-1.21l-.425.7a4.926,4.926,0,0,0-3.6-.7c-1.914.439-5.72,2.946-4.506,9.9a2.73,2.73,0,0,0,1.077,1.76,3.446,3.446,0,0,0,3.192.271,5.391,5.391,0,0,0,1.062-.476,7.9,7.9,0,0,1,1.325-.666c.291-.042.273,1.938,3.384,1.309a8.075,8.075,0,0,0,3.425-1.6l-.54-1.33s-1.1.57-1.474.317m-4.125-6.928a43.514,43.514,0,0,0-.8,6.558s-1.329.91-1.785,0-.262-3.59.585-6.2c.341-1.052,2.122-1.082,2-.357"/><path class="c" d="M101.3,2.919c-2.616.338-4.65.8-4.65.8.332.38-.125,4.222-.457,5.4a16.234,16.234,0,0,0-.457,2.364c-7.1-3.251-10.3,7.346-7.639,10.428s6.518.127,6.518.127c.415,1.1,2.034,1.179,2.034,1.179a5.449,5.449,0,0,0,4.276-1.643l-.415-1.309a1.188,1.188,0,0,1-1.121.335c-.581-.214-.125-5.274,1.329-10.931s.581-6.755.581-6.755M95.217,13.554a43.514,43.514,0,0,0-.8,6.558s-1.328.91-1.785,0-.262-3.59.585-6.2c.341-1.052,2.122-1.082,2-.357"/><path class="c" d="M121.191,3.078a16.061,16.061,0,0,0-4.8.57,17.834,17.834,0,0,1-.093,3.99c-.311,1.235-.81,6.238-1.37,6.523a6.214,6.214,0,0,1-1.962.285c-.062-4.148-3.052-3.578-3.052-3.578s-.9.095-2.616.19-4.349,1.162-5.356,5.161c-1,3.958,1.2,7.473,4.726,7s5.083-2.913,6.141-6.776a8.29,8.29,0,0,0,1.775-.38s-2.678,7.779,1.775,7.2c0,0,3.207-.454,4.64-1.72l-.394-1.351a1.98,1.98,0,0,1-1.453.5c-.913-.052-.768-2.249.851-7.948a27.751,27.751,0,0,0,1.183-9.657M110.044,19.036c-1.588,2.5-2.927,1.868-3.3,0s.841-6.952,1.681-5.977c0,0-.623,3.824,2.4,3.476,0,0,.81,0-.778,2.5"/><path class="c" d="M129.164,3.019a16.061,16.061,0,0,0-4.8.57,48.816,48.816,0,0,1-.4,6.3c-1.121,7.641-4.235,13.435.364,13.314,0,0,3.207-.454,4.64-1.72l-.394-1.351a1.979,1.979,0,0,1-1.453.5c-.913-.052-.768-2.249.851-7.948a27.751,27.751,0,0,0,1.183-9.657"/><path class="c" d="M137.423,16.345s2.576-2.28,1.143-4.243-6.2-1.393-7.411.823.415,3.335,1.536,4.9,2.076,2.66,1.744,3.335-.664.338-.664.338-1-2.744-2.159-3a2.843,2.843,0,0,0-2.4,2.575,2.769,2.769,0,0,0,2.146,1.9c1.868.507,7.764.76,7.39-4.222a3.923,3.923,0,0,0-1.33-2.406m-1.036-1.077s-1.308-1.33-1.121-2.148,1.121-.892,1.931-.184-.81,2.332-.81,2.332"/></g></svg>